<svg width="234" height="38" viewBox="0 0 234 38" fill="none" xmlns="http://www.w3.org/2000/svg">
<g filter="url(#filter0_dd_1054_5863)">
<path fill-rule="evenodd" clip-rule="evenodd" d="M11.405 9.53363C12.5731 5.19543 16.4075 2 21.0224 2C26.5536 2 30.983 6.62761 30.983 12.3168C30.983 12.8009 31.2797 13.3234 31.7834 13.6394C33.7251 14.8572 35 17.0512 35 19.5456C35 21.7702 33.9884 23.7289 32.4265 25.0093L32.4163 25.0177C31.2714 25.9321 29.8272 26.4775 28.2807 26.4775C27.7062 26.4775 27.2406 26.0068 27.2406 25.4262C27.2406 24.8456 27.7062 24.3748 28.2807 24.3748C29.336 24.3748 30.3278 24.004 31.1213 23.3719C32.2159 22.4721 32.9198 21.1051 32.9198 19.5456C32.9198 17.7885 32.0251 16.2656 30.6866 15.4261C29.6713 14.7893 28.9027 13.6398 28.9027 12.3168C28.9027 7.73654 25.3536 4.10271 21.0224 4.10271C17.3986 4.10271 14.3479 6.61067 13.4123 10.0858C13.1256 11.1505 12.147 11.8479 11.1045 11.8479C7.79626 11.8479 5.08023 14.6233 5.08023 18.1113C5.08023 20.3549 6.22228 22.3198 7.92536 23.422L7.93548 23.4286C8.91707 24.0801 9.87318 24.3748 10.4059 24.3748C10.9803 24.3748 11.446 24.8456 11.446 25.4262C11.446 26.0068 10.9803 26.4775 10.4059 26.4775C9.32756 26.4775 7.97668 25.9704 6.79859 25.1896C4.51525 23.7094 3 21.0864 3 18.1113C3 13.51 6.60041 9.74515 11.1045 9.74515C11.2581 9.74515 11.3776 9.63553 11.405 9.53363ZM20.969 33.1913C20.969 33.638 20.6108 34 20.1689 34H18.5687C18.1268 34 17.7686 33.638 17.7686 33.1913V31.5738C17.7686 31.1272 18.1268 30.7651 18.5687 30.7651H20.1689C20.6108 30.7651 20.969 31.1272 20.969 31.5738V33.1913ZM25.629 29.6049C25.629 30.0516 25.2708 30.4136 24.8289 30.4136H23.2287C22.7869 30.4136 22.4286 30.0516 22.4286 29.6049V27.9874C22.4286 27.5408 22.7869 27.1787 23.2287 27.1787H24.8289C25.2708 27.1787 25.629 27.5408 25.629 27.9874V29.6049ZM19.3688 28.2301C18.7944 28.2301 18.3287 27.7594 18.3287 27.1787V12.7541C18.3287 12.1735 18.7944 11.7027 19.3688 11.7027C19.9432 11.7027 20.4089 12.1735 20.4089 12.7541V27.1787C20.4089 27.7594 19.9432 28.2301 19.3688 28.2301ZM24.0289 25.3303C23.4544 25.3303 22.9888 24.8596 22.9888 24.279V20.3518C22.9888 17.9846 24.8873 16.0655 27.2293 16.0655H27.6501C28.2245 16.0655 28.6902 16.5362 28.6902 17.1169C28.6902 17.6975 28.2245 18.1682 27.6501 18.1682H27.2293C26.0362 18.1682 25.069 19.1458 25.069 20.3518V24.279C25.069 24.8596 24.6033 25.3303 24.0289 25.3303ZM13.1089 29.6049C13.1089 30.0516 13.4671 30.4136 13.909 30.4136H15.5092C15.951 30.4136 16.3093 30.0516 16.3093 29.6049V27.9874C16.3093 27.5408 15.951 27.1787 15.5092 27.1787H13.909C13.4671 27.1787 13.1089 27.5408 13.1089 27.9874V29.6049ZM14.7088 25.3303C15.2833 25.3303 15.749 24.8596 15.749 24.279V20.3518C15.749 17.9846 13.8504 16.0655 11.5085 16.0655H11.0924C10.518 16.0655 10.0523 16.5362 10.0523 17.1169C10.0523 17.6975 10.518 18.1682 11.0924 18.1682H11.5085C12.7016 18.1682 13.6687 19.1458 13.6687 20.3518V24.279C13.6687 24.8596 14.1344 25.3303 14.7088 25.3303Z" fill="#1570EF"/>
</g>
<path d="M47.49 10.006C51.296 10.006 53.254 11.788 53.254 15.154H50.592C50.592 13.174 49.47 12.162 47.446 12.162C45.752 12.162 44.696 12.976 44.696 14.252C44.696 15.682 45.774 16.122 48.282 16.738C51.23 17.464 53.694 18.234 53.694 21.534C53.694 24.438 51.362 26.33 47.842 26.33C44.058 26.33 41.748 24.416 41.748 20.83H44.454C44.454 23.074 45.686 24.152 47.864 24.152C49.822 24.152 50.966 23.25 50.966 21.776C50.966 20.192 49.822 19.84 47.424 19.246C44.454 18.498 41.99 17.772 41.99 14.494C41.99 11.832 44.168 10.006 47.49 10.006ZM59.9886 14.494C62.9366 14.494 64.5866 15.946 64.5866 18.872V23.052C64.5866 24.372 64.6966 25.296 64.8726 26H62.6066C62.4966 25.516 62.4526 24.966 62.4526 24.438H62.4086C61.5946 25.626 60.3406 26.242 58.6466 26.242C56.3146 26.242 54.8626 24.834 54.8626 22.92C54.8626 21.094 55.9406 19.906 59.1526 19.4C60.0546 19.246 61.3746 19.114 62.1666 19.07V18.63C62.1666 16.98 61.2646 16.32 59.9886 16.32C58.6026 16.32 57.8546 17.09 57.7886 18.278H55.3246C55.4346 16.166 56.9746 14.494 59.9886 14.494ZM62.1666 21.248V20.698C61.4186 20.742 60.3406 20.852 59.5926 20.984C57.9866 21.248 57.3926 21.732 57.3926 22.744C57.3926 23.734 58.0966 24.394 59.3726 24.394C60.1426 24.394 60.8906 24.152 61.3966 23.646C61.9906 23.03 62.1666 22.436 62.1666 21.248ZM71.408 14.494C74.356 14.494 76.006 15.946 76.006 18.872V23.052C76.006 24.372 76.116 25.296 76.292 26H74.026C73.916 25.516 73.872 24.966 73.872 24.438H73.828C73.014 25.626 71.76 26.242 70.066 26.242C67.734 26.242 66.282 24.834 66.282 22.92C66.282 21.094 67.36 19.906 70.572 19.4C71.474 19.246 72.794 19.114 73.586 19.07V18.63C73.586 16.98 72.684 16.32 71.408 16.32C70.022 16.32 69.274 17.09 69.208 18.278H66.744C66.854 16.166 68.394 14.494 71.408 14.494ZM73.586 21.248V20.698C72.838 20.742 71.76 20.852 71.012 20.984C69.406 21.248 68.812 21.732 68.812 22.744C68.812 23.734 69.516 24.394 70.792 24.394C71.562 24.394 72.31 24.152 72.816 23.646C73.41 23.03 73.586 22.436 73.586 21.248ZM83.5313 10.006C87.3373 10.006 89.2953 11.788 89.2953 15.154H86.6333C86.6333 13.174 85.5113 12.162 83.4873 12.162C81.7933 12.162 80.7373 12.976 80.7373 14.252C80.7373 15.682 81.8153 16.122 84.3233 16.738C87.2713 17.464 89.7353 18.234 89.7353 21.534C89.7353 24.438 87.4033 26.33 83.8833 26.33C80.0993 26.33 77.7893 24.416 77.7893 20.83H80.4953C80.4953 23.074 81.7273 24.152 83.9053 24.152C85.8633 24.152 87.0073 23.25 87.0073 21.776C87.0073 20.192 85.8633 19.84 83.4653 19.246C80.4953 18.498 78.0313 17.772 78.0313 14.494C78.0313 11.832 80.2093 10.006 83.5313 10.006ZM100.278 15.552H94.2302V19.68H99.9742V20.624H94.2302V25.056H100.47V26H93.1902V14.608H100.278V15.552ZM105.025 26H103.745L100.705 17.872H101.777L103.057 21.392C103.505 22.64 103.921 23.776 104.369 25.04H104.401C104.849 23.776 105.265 22.64 105.713 21.392L106.993 17.872H108.065L105.025 26ZM112.053 25.36C113.381 25.36 114.229 24.624 114.469 23.584H115.493C115.237 24.976 114.101 26.208 112.053 26.208C109.733 26.208 108.341 24.48 108.341 21.792C108.341 19.392 109.701 17.664 111.989 17.664C113.813 17.664 115.077 18.768 115.429 20.56C115.525 20.992 115.557 21.536 115.557 22.128H109.349C109.397 24.288 110.549 25.36 112.053 25.36ZM111.989 18.512C110.501 18.512 109.461 19.568 109.365 21.312H114.597C114.485 19.504 113.445 18.512 111.989 18.512ZM120.806 17.696C122.678 17.696 123.702 18.816 123.702 21.056V26H122.71V21.104C122.71 19.184 121.926 18.56 120.63 18.56C119.366 18.56 118.262 19.472 118.262 21.184V26H117.27V17.872H118.246V18.976H118.278C118.774 18.208 119.686 17.696 120.806 17.696ZM128.274 25.184C128.482 25.184 128.706 25.152 128.834 25.12V25.968C128.626 26.016 128.338 26.048 128.098 26.048C126.706 26.048 126.114 25.424 126.114 23.856V18.704H124.658V17.872H126.114V15.984H127.106V17.872H128.754V18.704H127.106V23.84C127.106 24.8 127.426 25.184 128.274 25.184ZM145.27 26H144.23V20.16C144.23 18.688 144.23 17.216 144.246 15.744H144.214C143.622 17.248 143.062 18.704 142.486 20.192L140.214 26H138.998L136.742 20.192C136.166 18.704 135.59 17.248 135.014 15.744H134.982C134.998 17.216 134.998 18.688 134.998 20.16V26H133.958V14.608H135.638L137.894 20.432L139.59 24.88H139.622C140.182 23.408 140.774 21.888 141.334 20.432L143.59 14.608H145.27V26ZM150.665 17.664C152.489 17.664 153.705 18.64 153.705 20.784V24C153.705 24.832 153.785 25.536 153.881 26H152.953C152.873 25.616 152.841 25.136 152.841 24.768H152.809C152.281 25.648 151.337 26.16 149.913 26.16C148.249 26.16 147.161 25.184 147.161 23.824C147.161 22.496 147.913 21.696 150.249 21.328C151.001 21.2 152.025 21.088 152.745 21.04V20.656C152.745 19.136 151.881 18.512 150.665 18.512C149.289 18.512 148.601 19.264 148.537 20.32H147.497C147.593 18.8 148.697 17.664 150.665 17.664ZM152.745 22.496V21.872C152.057 21.92 151.065 22.048 150.377 22.16C148.745 22.4 148.217 22.864 148.217 23.76C148.217 24.704 148.921 25.328 150.121 25.328C150.873 25.328 151.545 25.072 151.993 24.608C152.537 24.032 152.745 23.584 152.745 22.496ZM158.291 25.184C158.499 25.184 158.723 25.152 158.851 25.12V25.968C158.643 26.016 158.355 26.048 158.115 26.048C156.723 26.048 156.131 25.424 156.131 23.856V18.704H154.675V17.872H156.131V15.984H157.123V17.872H158.771V18.704H157.123V23.84C157.123 24.8 157.443 25.184 158.291 25.184ZM163.135 26.176C161.279 26.176 160.239 25.056 160.239 22.816V17.872H161.231V22.768C161.231 24.688 162.015 25.312 163.311 25.312C164.575 25.312 165.679 24.4 165.679 22.688V17.872H166.671V26H165.695V24.896H165.663C165.183 25.664 164.255 26.176 163.135 26.176ZM172.503 17.808C172.679 17.808 172.887 17.824 173.047 17.856V18.8C172.919 18.784 172.711 18.768 172.535 18.768C170.919 18.768 170.007 19.824 170.007 21.712V26H169.015V17.872H169.991V19.152H170.023C170.567 18.272 171.431 17.808 172.503 17.808ZM175.234 16.016H174.242V14.608H175.234V16.016ZM175.234 26H174.242V17.872H175.234V26ZM180.042 25.184C180.25 25.184 180.474 25.152 180.602 25.12V25.968C180.394 26.016 180.106 26.048 179.866 26.048C178.474 26.048 177.882 25.424 177.882 23.856V18.704H176.426V17.872H177.882V15.984H178.874V17.872H180.522V18.704H178.874V23.84C178.874 24.8 179.194 25.184 180.042 25.184ZM188.353 17.872L184.993 26.384C184.145 28.496 183.441 29.024 181.857 29.024C181.649 29.024 181.441 29.008 181.265 28.96V28.08C181.441 28.128 181.649 28.144 181.841 28.144C183.025 28.144 183.425 27.76 184.097 26L180.897 17.872H181.969L184.609 24.736H184.641L187.281 17.872H188.353ZM204.249 26H203.209V20.16C203.209 18.688 203.209 17.216 203.225 15.744H203.193C202.601 17.248 202.041 18.704 201.465 20.192L199.193 26H197.977L195.721 20.192C195.145 18.704 194.569 17.248 193.993 15.744H193.961C193.977 17.216 193.977 18.688 193.977 20.16V26H192.937V14.608H194.617L196.873 20.432L198.569 24.88H198.601C199.161 23.408 199.753 21.888 200.313 20.432L202.569 14.608H204.249V26ZM209.644 17.664C211.468 17.664 212.684 18.64 212.684 20.784V24C212.684 24.832 212.764 25.536 212.86 26H211.932C211.852 25.616 211.82 25.136 211.82 24.768H211.788C211.26 25.648 210.316 26.16 208.892 26.16C207.228 26.16 206.14 25.184 206.14 23.824C206.14 22.496 206.892 21.696 209.228 21.328C209.98 21.2 211.004 21.088 211.724 21.04V20.656C211.724 19.136 210.86 18.512 209.644 18.512C208.268 18.512 207.58 19.264 207.516 20.32H206.476C206.572 18.8 207.676 17.664 209.644 17.664ZM211.724 22.496V21.872C211.036 21.92 210.044 22.048 209.356 22.16C207.724 22.4 207.196 22.864 207.196 23.76C207.196 24.704 207.9 25.328 209.1 25.328C209.852 25.328 210.524 25.072 210.972 24.608C211.516 24.032 211.724 23.584 211.724 22.496ZM217.27 25.184C217.478 25.184 217.702 25.152 217.83 25.12V25.968C217.622 26.016 217.334 26.048 217.094 26.048C215.702 26.048 215.11 25.424 215.11 23.856V18.704H213.654V17.872H215.11V15.984H216.102V17.872H217.75V18.704H216.102V23.84C216.102 24.8 216.422 25.184 217.27 25.184ZM222.786 17.808C222.962 17.808 223.17 17.824 223.33 17.856V18.8C223.202 18.784 222.994 18.768 222.818 18.768C221.202 18.768 220.29 19.824 220.29 21.712V26H219.298V17.872H220.274V19.152H220.306C220.85 18.272 221.714 17.808 222.786 17.808ZM225.517 16.016H224.525V14.608H225.517V16.016ZM225.517 26H224.525V17.872H225.517V26ZM230.838 21.744L233.99 26H232.758L230.262 22.496H230.23L227.734 26H226.518L229.654 21.744L226.806 17.872H228.022L230.23 21.04H230.262L232.486 17.872H233.686L230.838 21.744Z" fill="black"/>
<defs>
<filter id="filter0_dd_1054_5863" x="0" y="0" width="38" height="38" filterUnits="userSpaceOnUse" color-interpolation-filters="sRGB">
<feFlood flood-opacity="0" result="BackgroundImageFix"/>
<feColorMatrix in="SourceAlpha" type="matrix" values="0 0 0 0 0 0 0 0 0 0 0 0 0 0 0 0 0 0 127 0" result="hardAlpha"/>
<feOffset dy="1"/>
<feGaussianBlur stdDeviation="1"/>
<feColorMatrix type="matrix" values="0 0 0 0 0.0627451 0 0 0 0 0.0941176 0 0 0 0 0.156863 0 0 0 0.06 0"/>
<feBlend mode="normal" in2="BackgroundImageFix" result="effect1_dropShadow_1054_5863"/>
<feColorMatrix in="SourceAlpha" type="matrix" values="0 0 0 0 0 0 0 0 0 0 0 0 0 0 0 0 0 0 127 0" result="hardAlpha"/>
<feOffset dy="1"/>
<feGaussianBlur stdDeviation="1.5"/>
<feColorMatrix type="matrix" values="0 0 0 0 0.0627451 0 0 0 0 0.0941176 0 0 0 0 0.156863 0 0 0 0.1 0"/>
<feBlend mode="normal" in2="effect1_dropShadow_1054_5863" result="effect2_dropShadow_1054_5863"/>
<feBlend mode="normal" in="SourceGraphic" in2="effect2_dropShadow_1054_5863" result="shape"/>
</filter>
</defs>
</svg>
